<svg xmlns="http://www.w3.org/2000/svg" width="220" height="78" viewBox="0 0 220 78" role="img" aria-label="Playback Cifras">
  <defs>
    <linearGradient id="g" x1="0" y1="0" x2="1" y2="1">
      <stop offset="0" stop-color="#ffd84a"/>
      <stop offset="1" stop-color="#e5aa00"/>
    </linearGradient>
  </defs>
  <path d="M35 5C18 8 6 21 6 38c0 18 11 30 28 35 4 1 8-1 10-5l22-45c2-5 0-11-5-13C53 6 44 4 35 5z" fill="url(#g)"/>
  <path d="M37 20v28.5c0 6.2-5.4 11-12 11-5 0-9-3-9-7 0-5 5-8 10-8 2 0 4 .4 5.6 1.2V20h5.4zm0 0c9 3 15 7.2 20 13.2l-3 4.8c-4.3-5-9.5-8.3-17-11V20z" fill="#0a0d11"/>
  <text x="78" y="33" font-family="Inter, Arial, sans-serif" font-size="26" font-weight="800" fill="#fff">Playback</text>
  <text x="78" y="63" font-family="Inter, Arial, sans-serif" font-size="32" font-weight="900" fill="#f2c230">Cifras</text>
</svg>
